<mxfile host="app.diagrams.net" modified="2023-06-04T09:38:39.427Z" agent="Mozilla/5.0 (Macintosh; Intel Mac OS X 10_15_7) AppleWebKit/537.36 (KHTML, like Gecko) Chrome/114.0.0.0 Safari/537.36" etag="Rv1IefDcm3IgP9Qoq__l" version="21.3.7" type="device">
  <diagram id="bBXLBJYZ3Fr1QxOom4uW" name="Page-3">
    <mxGraphModel dx="1220" dy="665" grid="1" gridSize="10" guides="1" tooltips="1" connect="1" arrows="1" fold="1" page="1" pageScale="1" pageWidth="1169" pageHeight="827" math="0" shadow="0">
      <root>
        <mxCell id="0" />
        <mxCell id="1" parent="0" />
        <mxCell id="R67AOXK4RP4mKCgUub41-1" value="&lt;br&gt;Mac" style="rounded=1;whiteSpace=wrap;html=1;" parent="1" vertex="1">
          <mxGeometry x="290" y="490" width="140" height="110" as="geometry" />
        </mxCell>
        <mxCell id="R67AOXK4RP4mKCgUub41-2" value="Docker" style="rounded=1;whiteSpace=wrap;html=1;" parent="1" vertex="1">
          <mxGeometry x="530" y="550" width="260" height="50" as="geometry" />
        </mxCell>
        <mxCell id="R67AOXK4RP4mKCgUub41-3" value="Ubuntu&lt;br&gt;container" style="rounded=1;whiteSpace=wrap;html=1;" parent="1" vertex="1">
          <mxGeometry x="530" y="490" width="260" height="50" as="geometry" />
        </mxCell>
        <mxCell id="R67AOXK4RP4mKCgUub41-4" value="source&lt;br&gt;files" style="shape=cylinder3;whiteSpace=wrap;html=1;boundedLbl=1;backgroundOutline=1;size=6.575757575757564;" parent="1" vertex="1">
          <mxGeometry x="360" y="500" width="60" height="50" as="geometry" />
        </mxCell>
        <mxCell id="R67AOXK4RP4mKCgUub41-7" style="rounded=0;orthogonalLoop=1;jettySize=auto;html=1;startArrow=classic;startFill=1;entryX=-0.001;entryY=0.416;entryDx=0;entryDy=0;entryPerimeter=0;exitX=0.989;exitY=0.178;exitDx=0;exitDy=0;exitPerimeter=0;" parent="1" source="R67AOXK4RP4mKCgUub41-1" target="R67AOXK4RP4mKCgUub41-3" edge="1">
          <mxGeometry relative="1" as="geometry">
            <mxPoint x="430" y="508" as="sourcePoint" />
            <mxPoint x="530" y="500" as="targetPoint" />
          </mxGeometry>
        </mxCell>
        <mxCell id="R67AOXK4RP4mKCgUub41-8" value="ssh" style="edgeLabel;html=1;align=center;verticalAlign=middle;resizable=0;points=[];" parent="R67AOXK4RP4mKCgUub41-7" vertex="1" connectable="0">
          <mxGeometry x="-0.3463" relative="1" as="geometry">
            <mxPoint x="21" y="-8" as="offset" />
          </mxGeometry>
        </mxCell>
        <mxCell id="R67AOXK4RP4mKCgUub41-5" value="VSCode Client" style="rounded=1;whiteSpace=wrap;html=1;" parent="1" vertex="1">
          <mxGeometry x="290" y="400" width="140" height="60" as="geometry" />
        </mxCell>
        <mxCell id="R67AOXK4RP4mKCgUub41-6" value="VSCode Remote" style="rounded=1;whiteSpace=wrap;html=1;" parent="1" vertex="1">
          <mxGeometry x="530" y="400" width="120" height="60" as="geometry" />
        </mxCell>
        <mxCell id="R67AOXK4RP4mKCgUub41-12" style="rounded=0;orthogonalLoop=1;jettySize=auto;html=1;exitX=0.5;exitY=1;exitDx=0;exitDy=0;startArrow=classic;startFill=1;entryX=0.5;entryY=0;entryDx=0;entryDy=0;" parent="1" source="R67AOXK4RP4mKCgUub41-5" target="R67AOXK4RP4mKCgUub41-1" edge="1">
          <mxGeometry relative="1" as="geometry">
            <mxPoint x="440" y="440" as="sourcePoint" />
            <mxPoint x="540" y="440" as="targetPoint" />
          </mxGeometry>
        </mxCell>
        <mxCell id="R67AOXK4RP4mKCgUub41-14" style="rounded=0;orthogonalLoop=1;jettySize=auto;html=1;exitX=0.5;exitY=1;exitDx=0;exitDy=0;startArrow=classic;startFill=1;entryX=0.5;entryY=0;entryDx=0;entryDy=0;" parent="1" edge="1">
          <mxGeometry relative="1" as="geometry">
            <mxPoint x="589.7" y="460" as="sourcePoint" />
            <mxPoint x="589.7" y="490" as="targetPoint" />
          </mxGeometry>
        </mxCell>
        <mxCell id="R67AOXK4RP4mKCgUub41-15" value="Dev tools&lt;br&gt;git, CMake, clang, gdb server, clangd" style="rounded=1;whiteSpace=wrap;html=1;" parent="1" vertex="1">
          <mxGeometry x="670" y="400" width="120" height="60" as="geometry" />
        </mxCell>
        <mxCell id="R67AOXK4RP4mKCgUub41-18" value="Ubuntu&lt;br&gt;VM" style="rounded=1;whiteSpace=wrap;html=1;" parent="1" vertex="1">
          <mxGeometry x="1180" y="490" width="260" height="100" as="geometry" />
        </mxCell>
        <mxCell id="R67AOXK4RP4mKCgUub41-20" value="Ubuntu&lt;br&gt;container" style="rounded=1;whiteSpace=wrap;html=1;" parent="1" vertex="1">
          <mxGeometry x="1330" y="370" width="110" height="50" as="geometry" />
        </mxCell>
        <mxCell id="R67AOXK4RP4mKCgUub41-21" value="Docker" style="rounded=1;whiteSpace=wrap;html=1;" parent="1" vertex="1">
          <mxGeometry x="1330" y="430" width="110" height="50" as="geometry" />
        </mxCell>
        <mxCell id="R67AOXK4RP4mKCgUub41-22" value="QEMU" style="rounded=1;whiteSpace=wrap;html=1;" parent="1" vertex="1">
          <mxGeometry x="1180" y="430" width="110" height="50" as="geometry" />
        </mxCell>
        <mxCell id="R67AOXK4RP4mKCgUub41-24" value="&lt;br&gt;Mac" style="rounded=1;whiteSpace=wrap;html=1;" parent="1" vertex="1">
          <mxGeometry x="950" y="490" width="140" height="110" as="geometry" />
        </mxCell>
        <mxCell id="R67AOXK4RP4mKCgUub41-25" value="source&lt;br&gt;files" style="shape=cylinder3;whiteSpace=wrap;html=1;boundedLbl=1;backgroundOutline=1;size=6.575757575757564;" parent="1" vertex="1">
          <mxGeometry x="1200" y="500" width="60" height="50" as="geometry" />
        </mxCell>
        <mxCell id="R67AOXK4RP4mKCgUub41-26" style="rounded=0;orthogonalLoop=1;jettySize=auto;html=1;startArrow=classic;startFill=1;entryX=0;entryY=0.5;entryDx=0;entryDy=0;exitX=0.989;exitY=0.178;exitDx=0;exitDy=0;exitPerimeter=0;" parent="1" target="R67AOXK4RP4mKCgUub41-18" edge="1">
          <mxGeometry relative="1" as="geometry">
            <mxPoint x="1090" y="539.5" as="sourcePoint" />
            <mxPoint x="1192" y="540.5" as="targetPoint" />
          </mxGeometry>
        </mxCell>
        <mxCell id="R67AOXK4RP4mKCgUub41-27" value="ssh" style="edgeLabel;html=1;align=center;verticalAlign=middle;resizable=0;points=[];" parent="R67AOXK4RP4mKCgUub41-26" vertex="1" connectable="0">
          <mxGeometry x="-0.3463" relative="1" as="geometry">
            <mxPoint x="10" y="-8" as="offset" />
          </mxGeometry>
        </mxCell>
        <mxCell id="R67AOXK4RP4mKCgUub41-28" value="Standard C++ Development Env on a Mac" style="text;html=1;strokeColor=none;fillColor=none;align=center;verticalAlign=middle;whiteSpace=wrap;rounded=0;" parent="1" vertex="1">
          <mxGeometry x="430" y="260" width="160" height="30" as="geometry" />
        </mxCell>
        <mxCell id="R67AOXK4RP4mKCgUub41-29" value="Benefits:&lt;br&gt;&lt;div style=&quot;text-align: left;&quot;&gt;&lt;span style=&quot;background-color: initial;&quot;&gt;- fully-managed isolated Linux environment (container)&lt;/span&gt;&lt;/div&gt;&lt;div style=&quot;text-align: left;&quot;&gt;&lt;span style=&quot;background-color: initial;&quot;&gt;- modern IDE (extension)&lt;/span&gt;&lt;/div&gt;&lt;div style=&quot;text-align: left;&quot;&gt;&lt;span style=&quot;background-color: initial;&quot;&gt;- local source file (volume mapping)&lt;/span&gt;&lt;/div&gt;" style="text;html=1;strokeColor=none;fillColor=none;align=center;verticalAlign=middle;whiteSpace=wrap;rounded=0;" parent="1" vertex="1">
          <mxGeometry x="350" y="330" width="300" height="30" as="geometry" />
        </mxCell>
        <mxCell id="R67AOXK4RP4mKCgUub41-31" value="Standard Embedded C++ Development Env on a Mac" style="text;html=1;strokeColor=none;fillColor=none;align=center;verticalAlign=middle;whiteSpace=wrap;rounded=0;" parent="1" vertex="1">
          <mxGeometry x="1070" y="250" width="160" height="30" as="geometry" />
        </mxCell>
        <mxCell id="R67AOXK4RP4mKCgUub41-32" value="&lt;div style=&quot;text-align: center;&quot;&gt;&lt;span style=&quot;background-color: initial;&quot;&gt;Toolchain&lt;/span&gt;&lt;/div&gt;&lt;div style=&quot;&quot;&gt;&lt;span style=&quot;background-color: initial;&quot;&gt;- compiler: clang&lt;/span&gt;&lt;/div&gt;- build system: CMake (easy to lookup resource)&lt;br&gt;- third party library: gtest, abseil,&amp;nbsp;&lt;br&gt;- C++ version: 17" style="text;html=1;strokeColor=none;fillColor=none;align=left;verticalAlign=middle;whiteSpace=wrap;rounded=0;" parent="1" vertex="1">
          <mxGeometry x="290" y="640" width="270" height="100" as="geometry" />
        </mxCell>
      </root>
    </mxGraphModel>
  </diagram>
</mxfile>
